{"title":"Van.Wilder.Freshman.Year.2009.720p.HDTV.x264.Feel-Free","uid":6051344,"size":1703773693,"categoryP":"video","categoryS":"hd___movies","magnet":"?xt=urn:btih:454fface03362f237a2a2e4961121c2db4adb75c&amp;dn=Van.Wilder.Freshman.Year.2009.720p.HDTV.x264.Feel-Free&amp;tr=udp%3A%2F%2Ftracker.openbittorrent.com%3A80&amp;tr=udp%3A%2F%2Fopen.demonii.com%3A1337&amp;tr=udp%3A%2F%2Ftracker.coppersurfer.tk%3A6969&amp;tr=udp%3A%2F%2Fexodus.desync.com%3A6969","seeders":6,"leechers":3,"uploader":"hiest","files":-1,"time":1292748835,"description":"Genre:Comedy\nLanguage:English\nIMDb:http://www.imdb.com/title/tt1276434/\nSource:1080i.HDTV.H.264.DD2.0-jTV\n\n\nFormat : Matroska\nFile size : 1.58 GiB\nDuration : 1h 36mn\nOverall bit rate : 2 343 Kbps\n\n\nVideo\nCodec ID : V_MPEG4/ISO/AVC\nDuration : 1h 36mn\nBit rate : 1 999 Kbps\nWidth : 1 280 pixels\nHeight : 720 pixels\nDisplay aspect ratio : 16:9\nFrame rate mode : Variable\nFrame rate : 25.000 fps\nColor space : YUV\nChroma subsampling : 4:2:0\nBit depth : 8 bits\nScan type : Progressive\nBits/(Pixel*Frame) : 0.087\nStream size : 1.29 GiB (82%)\nWriting library : x264 \n\n\nAudio\nID : 2\nFormat : AC-3\nFormat/Info : Audio Coding 3\nMode extension : CM (complete main)\nCodec ID : A_AC3\nDuration : 1h 36mn\nBit rate mode : Constant\nBit rate : 384 Kbps\nChannel(s) : 2 channels\nChannel positions : Front: L R\nSampling rate : 48.0 KHz\nBit depth : 16 bits\nVideo delay : -1mn 5s\nStream size : 265 MiB (16%)\nLanguage : English\n\n\nPlot:\nVan Wilder starts his freshman year at Coolidge College and embarks on an adventure to land the campus hottie and liberate his school from sexual oppression and party dysfunction.\n\n\n\n\n\n================================== &lt;a href=&quot;\nhttp://thepiratebay.se/user/hiest&quot; rel=&quot;nofollow&quot; target=&quot;_NEW&quot;&gt;\nhttp://thepiratebay.se/user/hiest&lt;/a&gt;\n==================================\n\n\n\n\n\nScreen Shots:\n &lt;a href=&quot;\nhttp://rapidhdd.com/images/256781vlcsnap-2010-12-19-08h48m08s233.png&quot; rel=&quot;nofollow&quot; target=&quot;_NEW&quot;&gt;\nhttp://rapidhdd.com/images/256781vlcsnap-2010-12-19-08h48m08s233.png&lt;/a&gt;\n &lt;a href=&quot;\nhttp://www.rapidhdd.com/images/837051vlcsnap-2010-12-19-08h48m23s130.png&quot; rel=&quot;nofollow&quot; target=&quot;_NEW&quot;&gt;\nhttp://www.rapidhdd.com/images/837051vlcsnap-2010-12-19-08h48m23s130.png&lt;/a&gt;\n &lt;a href=&quot;\nhttp://www.rapidhdd.com/images/592136vlcsnap-2010-12-19-08h48m35s255.png&quot; rel=&quot;nofollow&quot; target=&quot;_NEW&quot;&gt;\nhttp://www.rapidhdd.com/images/592136vlcsnap-2010-12-19-08h48m35s255.png&lt;/a&gt;\n &lt;a href=&quot;\nhttp://www.rapidhdd.com/images/964808vlcsnap-2010-12-19-08h54m59s239.png&quot; rel=&quot;nofollow&quot; target=&quot;_NEW&quot;&gt;\nhttp://www.rapidhdd.com/images/964808vlcsnap-2010-12-19-08h54m59s239.png&lt;/a&gt;\n &lt;a href=&quot;\nhttp://www.rapidhdd.com/images/962725vlcsnap-2010-12-19-08h55m54s27.png&quot; rel=&quot;nofollow&quot; target=&quot;_NEW&quot;&gt;\nhttp://www.rapidhdd.com/images/962725vlcsnap-2010-12-19-08h55m54s27.png&lt;/a&gt;","torrent":{"xt":"urn:btih:454fface03362f237a2a2e4961121c2db4adb75c","amp;dn":"Van.Wilder.Freshman.Year.2009.720p.HDTV.x264.Feel-Free","amp;tr":["udp%3A%2F%2Ftracker.openbittorrent.com%3A80","udp%3A%2F%2Fopen.demonii.com%3A1337","udp%3A%2F%2Ftracker.coppersurfer.tk%3A6969","udp%3A%2F%2Fexodus.desync.com%3A6969"],"infoHash":"454fface03362f237a2a2e4961121c2db4adb75c","infoHashBuffer":{"type":"Buffer","data":[69,79,250,206,3,54,47,35,122,42,46,73,97,18,28,45,180,173,183,92]},"announce":[],"urlList":[]}}